<svg width="1024" height="1024" viewBox="0 0 1024 1024" fill="none" xmlns="http://www.w3.org/2000/svg">
<path d="M151.3 610.3C157.7 603.9 166.5 600.3 175.9 600.3H990.6C1005.9 600.3 1013.5 618.9 1002.4 630L873.1 759.3C866.7 765.7 857.9 769.3 848.5 769.3H33.8C18.5 769.3 10.9 750.7 22 739.6L151.3 610.3Z" fill="url(#paint0_linear_1_70)"/>
<path d="M151.3 264.7C157.7 258.3 166.5 254.7 175.9 254.7H990.6C1005.9 254.7 1013.5 273.3 1002.4 284.4L873.1 413.7C866.7 420.1 857.9 423.7 848.5 423.7H33.8C18.5 423.7 10.9 405.1 22 394L151.3 264.7Z" fill="url(#paint1_linear_1_70)"/>
<path d="M873.1 437.3C866.7 430.9 857.9 427.3 848.5 427.3H33.8C18.5 427.3 10.9 445.9 22 457L151.3 586.3C157.7 592.7 166.5 596.3 175.9 596.3H990.6C1005.9 596.3 1013.5 577.7 1002.4 566.6L873.1 437.3Z" fill="url(#paint2_linear_1_70)"/>
<defs>
<linearGradient id="paint0_linear_1_70" x1="948.041" y1="545.259" x2="411.222" y2="1082.08" gradientUnits="userSpaceOnUse">
<stop stop-color="#00FFA3"/>
<stop offset="1" stop-color="#DC1FFF"/>
</linearGradient>
<linearGradient id="paint1_linear_1_70" x1="656.175" y1="253.352" x2="119.356" y2="790.171" gradientUnits="userSpaceOnUse">
<stop stop-color="#00FFA3"/>
<stop offset="1" stop-color="#DC1FFF"/>
</linearGradient>
<linearGradient id="paint2_linear_1_70" x1="801.993" y1="399.171" x2="265.174" y2="935.99" gradientUnits="userSpaceOnUse">
<stop stop-color="#00FFA3"/>
<stop offset="1" stop-color="#DC1FFF"/>
</linearGradient>
</defs>
</svg>
